<svg width="296" height="317" viewBox="0 0 296 317" fill="none" xmlns="http://www.w3.org/2000/svg">
<g clip-path="url(#clip0_89_366)">
<path d="M163.454 317.078C236.986 317.078 296.595 257.529 296.595 184.072C296.595 110.614 236.986 51.0649 163.454 51.0649C89.9225 51.0649 30.3135 110.614 30.3135 184.072C30.3135 257.529 89.9225 317.078 163.454 317.078Z" fill="#2D2E2F"/>
<path d="M163.454 237.512C192.998 237.512 216.948 213.586 216.948 184.071C216.948 154.557 192.998 130.631 163.454 130.631C133.91 130.631 109.96 154.557 109.96 184.071C109.96 213.586 133.91 237.512 163.454 237.512Z" fill="#3A8960"/>
<path d="M163.454 188.228C169.398 188.228 169.398 179.321 163.454 179.321C157.51 179.321 157.51 188.228 163.454 188.228Z" fill="#2D2E2F"/>
<path d="M105.799 78.3789L128.98 129.444C125.414 130.631 118.876 133.6 112.932 140.132C107.582 145.476 105.205 151.414 104.016 154.976C87.3737 147.257 70.1367 140.132 53.4941 132.413C55.8717 124.694 62.4098 111.037 75.4861 97.9736C86.7793 86.6918 98.6668 80.754 105.799 78.3789Z" fill="#E1D5CA"/>
<path d="M218.731 289.17L195.55 238.105C199.117 236.918 205.655 233.355 211.598 227.417C216.948 222.073 219.325 216.135 220.514 212.573C237.157 220.292 254.394 227.417 271.036 235.136C268.659 242.855 262.121 256.512 249.044 269.576C238.345 280.857 225.864 286.201 218.731 289.17Z" fill="#E1D5CA"/>
<path d="M45.1729 109.849C32.6909 128.85 26.7472 127.069 12.4821 118.162C-1.18857 109.256 -5.34921 104.505 7.13272 84.9107L9.51023 81.3481C21.9922 62.3471 27.9359 64.1285 42.201 73.0352C55.8717 81.9419 60.0323 86.6921 47.5504 106.287L45.1729 109.849ZM36.8516 99.1615C43.9841 87.8797 43.9841 85.5045 37.446 81.3481C31.5022 77.1916 29.1247 77.7854 21.9922 89.0672L19.6146 92.6299C12.4821 103.912 12.4821 106.287 19.0203 110.443C25.5584 114.6 27.3416 114.006 35.0685 102.724L36.8516 99.1615Z" fill="#2D2E2F"/>
<path d="M79.0526 33.8456L74.8919 36.8145L70.1369 29.0954C68.9481 26.7202 68.9481 25.5327 71.3257 24.3451L90.9401 11.8758C93.3176 10.6882 94.5064 10.6882 95.6951 13.0633L100.45 20.7824L96.2895 23.7513C92.7232 26.1265 92.1289 27.9078 94.5064 31.4705L106.394 49.8776C108.771 53.4403 108.177 55.2217 105.205 57.003L101.045 58.7843C96.2895 61.7532 93.912 61.7532 89.157 59.9719L59.4381 47.5025L67.165 59.3781C69.5425 62.9408 71.3257 63.5346 74.8919 61.1594L79.0526 58.1905L83.2132 65.3159C84.402 67.691 84.402 68.8786 82.0245 70.0661L62.41 82.5355C60.0325 83.7231 58.8437 83.7231 57.655 81.3479L53.4943 73.6288L57.655 71.2537C61.2212 68.8786 61.8156 67.0972 59.4381 63.5346L54.6831 55.8154C52.3056 52.2528 50.5224 52.2528 46.9562 54.0341L42.7955 57.003L38.0405 49.2839C36.2574 47.5025 36.8518 46.315 38.6349 44.5336L52.9 35.6269C57.655 32.658 59.4381 32.658 65.3819 35.0332L94.5064 47.5025L86.7795 35.6269C84.402 32.0643 82.6188 31.4705 79.0526 33.8456Z" fill="#2D2E2F"/>
<path d="M117.092 45.7211L115.904 36.8144L120.659 36.2206C124.819 35.6268 126.008 33.8455 125.414 30.2828L124.819 21.3761C124.225 17.2197 122.442 16.0321 118.876 16.6259L114.12 17.2197L112.932 8.31297C112.337 5.34408 112.932 4.7503 115.904 4.15652L145.028 6.01411e-05C159.293 -1.78128 166.426 -0.593719 168.803 17.2197L169.398 20.7823C171.775 38.5957 165.237 42.1584 151.566 43.9397L122.442 48.0962C118.876 49.2838 117.687 48.69 117.092 45.7211ZM152.161 32.0641C158.699 31.4704 159.888 29.0953 159.293 22.5637L158.699 19.5948C157.51 13.0632 155.727 11.2819 149.189 11.8756L135.518 13.657C133.735 13.657 133.141 14.2508 133.141 16.6259L134.924 31.4704C135.518 33.2517 136.112 33.8455 137.896 33.8455L152.161 32.0641Z" fill="#2D2E2F"/>
<path d="M206.844 38.5956L211.599 39.7831C213.382 40.3769 213.976 39.1894 213.976 37.408V35.0329C213.976 33.8453 213.382 33.8453 212.193 33.2516L199.117 29.6889C197.928 29.0951 197.334 29.6889 196.739 30.8764L195.551 32.6578C193.767 35.0329 194.362 35.6267 196.739 36.2205L202.089 37.408L199.711 45.7209C199.117 48.096 197.928 48.6898 195.551 48.096L174.153 42.1582C171.775 41.5645 171.181 40.3769 171.775 38.0018L174.153 29.6889L178.314 30.8764C181.285 31.4702 182.474 31.4702 185.446 28.5013L192.579 19.5946C195.551 16.0319 194.956 14.2506 191.39 13.0631L188.418 12.4693L190.201 5.9377C191.39 2.37502 193.173 1.18746 196.739 2.37502L214.571 7.71904C219.92 9.50037 221.703 11.2817 222.298 16.0319L225.864 39.1893C226.458 44.5334 227.647 45.1271 230.024 46.3147L234.779 47.5023L232.402 55.8152C231.808 58.1903 230.619 58.7841 228.241 58.1903L206.249 52.2525C203.872 51.6587 203.277 50.4712 203.872 48.096L206.844 38.5956ZM212.787 20.7822C212.787 19.5946 212.193 19.0008 211.004 19.0008L206.249 17.8133C204.466 17.2195 203.872 17.8133 203.277 19.0008L201.494 21.9697C200.306 22.5635 200.9 23.1573 202.089 23.7511L211.004 26.1262C212.193 26.72 213.382 26.1262 212.787 24.3449V20.7822Z" fill="#2D2E2F"/>
</g>
<defs>
<clipPath id="clip0_89_366">
<rect width="296" height="316.484" fill="white"/>
</clipPath>
</defs>
</svg>
