<svg width="266" height="266" viewBox="0 0 266 266" fill="none" xmlns="http://www.w3.org/2000/svg">
<path d="M265.095 133.072C265.095 205.699 206.159 264.578 133.454 264.578C60.7495 264.578 1.81348 205.699 1.81348 133.072C1.81348 60.4439 60.7495 1.56494 133.454 1.56494C206.159 1.56494 265.095 60.4439 265.095 133.072Z" fill="#2D2E2F" stroke="#E1D5CA" stroke-width="3"/>
<path d="M133.454 186.512C162.998 186.512 186.948 162.586 186.948 133.071C186.948 103.557 162.998 79.6313 133.454 79.6313C103.91 79.6313 79.96 103.557 79.96 133.071C79.96 162.586 103.91 186.512 133.454 186.512Z" fill="#3A8960"/>
<path d="M133.454 137.228C139.398 137.228 139.398 128.321 133.454 128.321C127.51 128.321 127.51 137.228 133.454 137.228Z" fill="#2D2E2F"/>
<path d="M75.7994 27.3789L98.9801 78.4439C95.4138 79.6315 88.8757 82.6004 82.9319 89.132C77.5825 94.476 75.205 100.414 74.0162 103.976C57.3737 96.2573 40.1367 89.132 23.4941 81.4128C25.8717 73.6937 32.4098 60.0368 45.4861 46.9736C56.7793 35.6918 68.6668 29.754 75.7994 27.3789Z" fill="#E1D5CA"/>
<path d="M188.731 238.17L165.55 187.105C169.117 185.918 175.655 182.355 181.598 176.417C186.948 171.073 189.325 165.135 190.514 161.573C207.157 169.292 224.394 176.417 241.036 184.136C238.659 191.855 232.121 205.512 219.044 218.576C208.345 229.857 195.864 235.201 188.731 238.17Z" fill="#E1D5CA"/>
</svg>
